<?xml version="1.0" encoding="utf-8"?>
<!-- Generator: Adobe Illustrator 16.0.4, SVG Export Plug-In . SVG Version: 6.00 Build 0)  -->
<!DOCTYPE svg PUBLIC "-//W3C//DTD SVG 1.1//EN" "http://www.w3.org/Graphics/SVG/1.1/DTD/svg11.dtd">
<svg version="1.1" id="Layer_1" xmlns="http://www.w3.org/2000/svg" xmlns:xlink="http://www.w3.org/1999/xlink" x="0px" y="0px"
	 width="719.91px" height="579.928px" viewBox="0 0 719.91 579.928" enable-background="new 0 0 719.91 579.928"
	 xml:space="preserve">
<image display="none" overflow="visible" width="720" height="580" xlink:href="Mockup-imac.png"  transform="matrix(0.9999 0 0 0.9999 0 0)">
</image>
<g>
	<circle fill="#D0021A" cx="362.5" cy="460.625" r="16.5"/>
	<path fill="#D0021A" d="M702.91,0H17C7.611,0,0,7.611,0,17v461c0,9.389,7.611,17,17,17h685.91c9.389,0,17-7.611,17-17V17
		C719.91,7.611,712.299,0,702.91,0z M362.5,478.625c-9.941,0-18-8.059-18-18s8.059-18,18-18c9.941,0,18,8.059,18,18
		S372.441,478.625,362.5,478.625z M694,403H28V28h666V403z"/>
</g>
<polyline fill="#D0021A" points="289,497.5 268.5,569 242,575.5 242,579.928 480,579.928 480,574.5 455.5,569 433.5,497.5 "/>
</svg>
